# xmcd
#
# Track frame offsets:
# 150
# 12472
# 25705
# 39747
# 53040
# 67030
# 77827
# 93225
#
# Disc length: 1404 seconds
#
#
# Revision: 2
# Processed by: cddbd v1.5.1PL0 Copyright (c) Steve Scherf et al.
# Submitted via: FreeRIP 2.942 
#
DISCID=5f057a08
DTITLE=Dolly Parton - Collector's Series
DYEAR=1900
DGENRE=Country
TTITLE0=Jolene
TTITLE1=I'm A Drifter
TTITLE2=Coat Of Many Colors
TTITLE3=I Will Always Love You
TTITLE4=Two Doors Down
TTITLE5=Love Is Like A Butterfly
TTITLE6=Applejack
TTITLE7=The Bargin Store
EXTD=
EXTT0=
EXTT1=
EXTT2=
EXTT3=
EXTT4=
EXTT5=
EXTT6=
EXTT7=
PLAYORDER=
